<svg xmlns="http://www.w3.org/2000/svg" viewBox="0 0 128 128"><path fill="#00ACD7" d="M17.128 56.837c-.163 0-.272-.054-.327-.163l-.382-.709c-.054-.109 0-.218.109-.272l.054-.054h15.71c.164 0 .272.054.327.163l.327.655c.054.163 0 .272-.109.327l-.054.054H17.128zM6.984 61.2c-.163 0-.272-.054-.327-.163l-.382-.709c-.054-.109 0-.218.109-.272l.054-.054h20.074c.163 0 .218.109.218.218l-.054.709c0 .163-.109.272-.272.272H6.984zM12.438 65.563c-.163 0-.272-.054-.327-.163l-.218-.654c-.054-.163 0-.272.109-.327l.054-.054h10.746c.163 0 .272.054.272.218l-.054.654c-.054.163-.163.272-.327.327H12.438z"/><path fill="#00ACD7" d="M68.474 53.837c-2.455.6-4.128 1.037-6.583 1.637-.545.109-.6.163-1.091-.382-.545-.654-.981-1.091-1.745-1.473-2.291-1.2-4.528-.872-6.638.491-2.509 1.636-3.818 4.037-3.764 6.928.055 2.836 1.964 5.182 4.746 5.618 2.4.382 4.473-.327 6.147-2.073.381-.436.709-.927 1.091-1.473H54.01c-.763 0-.927-.49-.654-1.09.49-1.092 1.418-2.946 1.963-3.873.109-.218.381-.545.872-.545h14.783c-.054.872-.054 1.745-.163 2.618-.327 2.291-1.145 4.418-2.455 6.328-2.127 3.109-4.964 5.236-8.618 6.11-2.945.709-5.782.545-8.401-.818-2.455-1.309-4.037-3.327-4.855-5.945-1.036-3.382-.763-6.601 1.037-9.601 2.018-3.437 4.909-5.618 8.836-6.383 3.164-.6 6.165-.327 8.892 1.472.981.654 1.8 1.473 2.455 2.455.163.272.109.436-.218.545z"/><path fill="#00ACD7" d="M84.983 72.076c-2.727-.054-5.236-.709-7.418-2.455-1.855-1.472-3.055-3.382-3.491-5.727-.6-3.164.109-6.055 1.909-8.673 1.964-2.836 4.636-4.527 7.964-5.018 2.891-.436 5.618-.054 8.019 1.582 2.073 1.418 3.382 3.382 3.873 5.836.654 3.436-.109 6.492-2.237 9.219-1.636 2.127-3.764 3.545-6.328 4.31-1.09.326-2.181.49-2.291.926zm8.347-10.8c-.054-.6-.054-1.037-.163-1.472-.654-2.946-3.491-4.691-6.437-4.146-2.891.545-4.746 2.291-5.509 5.127-.6 2.182.327 4.528 2.236 5.618 1.472.818 3 .872 4.528.382 2.727-.872 4.636-2.727 5.236-5.509h.109z"/></svg>
