<svg xmlns="http://www.w3.org/2000/svg" viewBox="0 0 128 128"><path fill="#6181B6" d="M64 33.039C30.26 33.039 2.906 46.901 2.906 64S30.26 94.961 64 94.961 125.094 81.099 125.094 64 97.74 33.039 64 33.039zM48.103 70.032c-1.458 1.364-3.077 1.927-4.86 2.507-1.783.581-4.052.461-6.811.461h-6.253l-1.733 10h-7.301l6.515-34H41.7c4.224 0 7.305 1.215 9.242 3.432 1.937 2.217 2.519 5.364 1.747 9.337-.319 1.637-.856 3.159-1.614 4.515-.759 1.357-1.75 2.624-2.972 3.748zM69.414 73l2.881-14.42c.328-1.688.132-2.913-.586-3.676-.719-.764-2.016-1.145-3.889-1.145h-7.236L57.57 73h-7.239l6.515-34h7.239l-1.733 10h7.489c4.16 0 7.136.895 8.928 2.688 1.792 1.792 2.38 4.528 1.764 8.205L77.416 73h-8.002zm34.166-20.07c-1.938 2.217-4.996 3.432-9.182 3.432h-6.79l-1.733 10h-7.222l6.515-34h14.011c4.224 0 7.269 1.215 9.207 3.432 1.937 2.217 2.519 5.364 1.747 9.337-.318 1.637-.856 3.159-1.614 4.515a13.527 13.527 0 01-2.939 3.284z"/><path fill="#fff" d="M38.652 49.839h-4.755l-3.466 14.799h4.455c2.263 0 4.178-.462 5.741-1.602 1.563-1.139 2.629-3.009 3.196-5.603.547-2.487.361-4.188-.558-5.327-.919-1.138-2.538-2.267-4.613-2.267zM95.958 49.839h-4.755l-3.466 14.799h4.455c2.264 0 4.178-.462 5.741-1.602 1.563-1.139 2.629-3.009 3.196-5.603.547-2.487.361-4.188-.558-5.327-.919-1.138-2.538-2.267-4.613-2.267z"/></svg>
