<svg xmlns="http://www.w3.org/2000/svg" viewBox="0 0 128 128"><linearGradient id="a" x1="157.08" x2="131.682" y1="2382.05" y2="2426.892" gradientTransform="matrix(1 0 0 -1 -47.5 2517)" gradientUnits="userSpaceOnUse"><stop offset="0" stop-color="#FB7655"/><stop offset="0" stop-color="#FB7655"/><stop offset=".41" stop-color="#E42B1E"/><stop offset=".99" stop-color="#900"/><stop offset="1" stop-color="#900"/></linearGradient><path fill="url(#a)" d="M97.078 83.214L28.34 124.031l89.003-6.04 6.855-89.745z"/><linearGradient id="b" x1="169.731" x2="136.998" y1="2419.72" y2="2441.685" gradientTransform="matrix(1 0 0 -1 -47.5 2517)" gradientUnits="userSpaceOnUse"><stop offset="0" stop-color="#871101"/><stop offset=".99" stop-color="#911209"/><stop offset="1" stop-color="#911209"/></linearGradient><path fill="url(#b)" d="M117.488 117.929l-7.649-52.799-20.837 27.514z"/><linearGradient id="c" x1="143.542" x2="110.81" y1="2420.735" y2="2442.699" gradientTransform="matrix(1 0 0 -1 -47.5 2517)" gradientUnits="userSpaceOnUse"><stop offset="0" stop-color="#871101"/><stop offset=".99" stop-color="#911209"/><stop offset="1" stop-color="#911209"/></linearGradient><path fill="url(#c)" d="M117.592 117.555l-56.044-4.399-33.91 10.365z"/><linearGradient id="d" x1="74.817" x2="79.891" y1="2435.622" y2="2402.644" gradientTransform="matrix(1 0 0 -1 -47.5 2517)" gradientUnits="userSpaceOnUse"><stop offset="0" stop-color="#fff"/><stop offset=".23" stop-color="#E57252"/><stop offset=".46" stop-color="#DE3B20"/><stop offset=".99" stop-color="#A60003"/><stop offset="1" stop-color="#A60003"/></linearGradient><path fill="url(#d)" d="M28.717 123.928l14.001-45.867-30.81 6.588z"/><linearGradient id="e" x1="109.719" x2="111.589" y1="2466.413" y2="2432.757" gradientTransform="matrix(1 0 0 -1 -47.5 2517)" gradientUnits="userSpaceOnUse"><stop offset="0" stop-color="#fff"/><stop offset=".23" stop-color="#E4714E"/><stop offset=".56" stop-color="#BE1A0D"/><stop offset=".99" stop-color="#A80D00"/><stop offset="1" stop-color="#A80D00"/></linearGradient><path fill="url(#e)" d="M88.996 92.797l-12.882-50.46-36.866 34.43z"/><linearGradient id="f" x1="140.691" x2="146.289" y1="2497.523" y2="2473.401" gradientTransform="matrix(1 0 0 -1 -47.5 2517)" gradientUnits="userSpaceOnUse"><stop offset="0" stop-color="#fff"/><stop offset=".18" stop-color="#E46342"/><stop offset=".4" stop-color="#C82410"/><stop offset=".99" stop-color="#A80D00"/><stop offset="1" stop-color="#A80D00"/></linearGradient><path fill="url(#f)" d="M121.275 43.047L86.426 14.585l-9.704 31.373z"/><linearGradient id="g" x1="123.6" x2="135.49" y1="2506.018" y2="2518.621" gradientTransform="matrix(1 0 0 -1 -47.5 2517)" gradientUnits="userSpaceOnUse"><stop offset="0" stop-color="#fff"/><stop offset=".54" stop-color="#C81F11"/><stop offset=".99" stop-color="#BF0905"/><stop offset="1" stop-color="#BF0905"/></linearGradient><path fill="url(#g)" d="M104.978 4.437L84.481 15.764 71.551 4.285z"/><linearGradient id="h" x1="53.674" x2="55.398" y1="2444.028" y2="2424.153" gradientTransform="matrix(1 0 0 -1 -47.5 2517)" gradientUnits="userSpaceOnUse"><stop offset="0" stop-color="#fff"/><stop offset=".31" stop-color="#DE4024"/><stop offset=".99" stop-color="#BF190B"/><stop offset="1" stop-color="#BF190B"/></linearGradient><path fill="url(#h)" d="M3.802 100.034l8.586-15.659L5.442 65.72z"/><path fill="#fff" d="M4.981 65.131l6.987 19.821 30.365-6.812L77 45.922l9.783-31.075L71.469 3.143 47.48 0 24.809 11.072l.06.313-13.21 16.647L3.093 48.7z"/><linearGradient id="i" x1="40.026" x2="133.345" y1="2418.781" y2="2514.82" gradientTransform="matrix(1 0 0 -1 -47.5 2517)" gradientUnits="userSpaceOnUse"><stop offset="0" stop-color="#BD0012"/><stop offset=".07" stop-color="#fff"/><stop offset=".17" stop-color="#fff"/><stop offset=".27" stop-color="#C82F1C"/><stop offset=".33" stop-color="#820C01"/><stop offset=".46" stop-color="#A31601"/><stop offset=".72" stop-color="#B31301"/><stop offset=".99" stop-color="#E82609"/><stop offset="1" stop-color="#E82609"/></linearGradient><path fill="url(#i)" d="M29.519 29.521l12.025 48.932 34.112-32.502 12.318-31.165-17.236-11.418-19.585.044z"/><linearGradient id="j" x1="111.507" x2="83.398" y1="2409.102" y2="2416.039" gradientTransform="matrix(1 0 0 -1 -47.5 2517)" gradientUnits="userSpaceOnUse"><stop offset="0" stop-color="#8C0C01"/><stop offset=".54" stop-color="#990C00"/><stop offset=".99" stop-color="#A80D0E"/><stop offset="1" stop-color="#A80D0E"/></linearGradient><path fill="url(#j)" d="M27.647 123.521L42.018 78.54l-30.073 6.58z"/><linearGradient id="k" x1="159.785" x2="134.814" y1="2432.245" y2="2469.871" gradientTransform="matrix(1 0 0 -1 -47.5 2517)" gradientUnits="userSpaceOnUse"><stop offset="0" stop-color="#7E110B"/><stop offset=".99" stop-color="#9E0C00"/><stop offset="1" stop-color="#9E0C00"/></linearGradient><path fill="url(#k)" d="M109.836 65.13l-33.723-20.182 12.695 47.895z"/><linearGradient id="l" x1="168.959" x2="156.521" y1="2483.901" y2="2497.199" gradientTransform="matrix(1 0 0 -1 -47.5 2517)" gradientUnits="userSpaceOnUse"><stop offset="0" stop-color="#79130D"/><stop offset=".99" stop-color="#9E120B"/><stop offset="1" stop-color="#9E120B"/></linearGradient><path fill="url(#l)" d="M121.167 43.389l-10.834 22.146L124.15 28.34z"/><path fill="#9E1209" d="M124.146 28.244L104.504 5.037l-17.31 9.394z"/><linearGradient id="m" x1="78.703" x2="60.135" y1="2500.98" y2="2510.138" gradientTransform="matrix(1 0 0 -1 -47.5 2517)" gradientUnits="userSpaceOnUse"><stop offset="0" stop-color="#891103"/><stop offset=".99" stop-color="#AD1104"/><stop offset="1" stop-color="#AD1104"/></linearGradient><path fill="url(#m)" d="M47.132.5L29.341 29.3l21.32-15.141z"/><path fill="#BB1F11" d="M11.487 84.842L3.269 65.091l8.783 19.652z"/></svg>
